<?xml version="1.0" encoding="UTF-8"?>
<svg version="1.1" xmlns="http://www.w3.org/2000/svg" width="600" height="614">
<path d="M0 0 C198 0 396 0 600 0 C600 202.62 600 405.24 600 614 C402 614 204 614 0 614 C0 411.38 0 208.76 0 0 Z " fill="#FEFEFE" transform="translate(0,0)"/>
<path d="M0 0 C0.66 0 1.32 0 2 0 C1.93143799 0.62148926 1.86287598 1.24297852 1.79223633 1.88330078 C0.98030527 9.8834022 0.74821008 17.83698514 0.6875 25.875 C0.65849609 27.14730469 0.62949219 28.41960938 0.59960938 29.73046875 C0.51618086 42.29608669 4.01726624 52.53648962 9.375 63.75 C12.35124393 70.18856869 15.15434321 76.63850787 17.5625 83.3125 C17.93930908 84.32425293 17.93930908 84.32425293 18.32373047 85.35644531 C21.77904609 95.23373664 18.87411061 102.73397655 15 112 C14.20067264 113.49781649 13.37104758 114.98022357 12.5 116.4375 C-0.83788896 139.04480236 -1.05000612 168.92207647 2.5 194.0625 C3.90487379 204.10216835 4.28349875 213.94457733 4.25 224.0625 C4.24895264 224.75167511 4.24790527 225.44085022 4.24682617 226.15090942 C4.20766031 238.26458269 4.20766031 238.26458269 3.359375 243.49609375 C2.94523947 247.53391516 3.80065938 250.15085267 5 254 C6.31996672 270.19959159 2.00028566 284.19772212 -2.94848633 299.42895508 C-9.37433777 319.311469 -12.99434198 339.36444269 -16 360 C-16.13567383 360.88478027 -16.27134766 361.76956055 -16.41113281 362.68115234 C-20.84798214 392.10808682 -19.05935643 424.63863553 -15 454 C-14.98598145 452.94425781 -14.98598145 452.94425781 -14.97167969 451.8671875 C-14.57095578 427.79232374 -11.72193792 409.20033817 3.13671875 389.5234375 C7.8151952 383.18738764 10.56832571 377.91402865 11 370 C12.32 370 13.64 370 15 370 C16.32 373.63 17.64 377.26 19 381 C19.99 380.34 20.98 379.68 22 379 C22.20753906 379.845625 22.41507812 380.69125 22.62890625 381.5625 C24.97580407 390.2037974 27.78817128 396.1382831 35.05078125 401.51953125 C39.43779866 403.72175589 44.009682 404.841509 48.75 406.0625 C49.68199219 406.31837891 50.61398438 406.57425781 51.57421875 406.83789062 C65.52934461 410.48120872 80.02162671 411.33116098 94.375 412.125 C95.11013824 412.16602844 95.84527649 412.20705688 96.60269165 412.24932861 C107.54582589 412.84461265 118.49186789 413.25231383 129.45123291 413.35247803 C130.91221181 413.36719189 132.37314422 413.38827733 133.83392334 413.41656494 C151.93567564 413.73723512 176.32763224 409.34315161 190.17578125 396.828125 C190.77777344 396.22484375 191.37976563 395.6215625 192 395 C192.63292969 394.43796875 193.26585937 393.8759375 193.91796875 393.296875 C203.67043308 383.71960464 210.11118539 368.95907544 214 356 C214.54911108 354.21993849 215.0986083 352.43999607 215.6484375 350.66015625 C216.5124096 347.8620648 217.37457774 345.06390265 218.21875 342.25976562 C219.97604498 336.61188288 222.14589281 331.48481213 224.8671875 326.23608398 C236.97490544 302.33638817 229.67165811 267.93166378 224 243 C223.7525 241.82953125 223.505 240.6590625 223.25 239.453125 C221.9810096 233.61048168 220.50032559 228.41737212 218 223 C215 214.89041096 215 214.89041096 215 211 C215.78375 210.938125 216.5675 210.87625 217.375 210.8125 C220.19129854 210.27965196 220.19129854 210.27965196 221.1875 207.75 C221.455625 206.8425 221.72375 205.935 222 205 C222.66666667 203.33333333 223.33333333 201.66666667 224 200 C222.68 199.67 221.36 199.34 220 199 C219.49593107 191.18198969 221.35664366 183.99561793 223.1875 176.4375 C223.34883423 175.76437775 223.51016846 175.09125549 223.6763916 174.3977356 C228.01358227 156.34787439 234.04267499 141.2670287 243 125 C245.31 125.33 247.62 125.66 250 126 C248.67275654 132.49891626 246.86972161 138.61787989 244.6875 144.875 C239.82885972 159.23610449 236.07835013 173.38699054 233.6875 188.375 C233.42996948 189.96090942 233.42996948 189.96090942 233.16723633 191.57885742 C230.79264079 206.86211592 230.79264079 206.86211592 235.25 221.1875 C235.89864053 222.36303874 236.54447013 223.54013282 237.1875 224.71875 C237.785625 225.8015625 238.38375 226.884375 239 228 C243.32640007 237.40992014 245.93554435 247.23953883 247.4609375 257.46484375 C247.85359324 260.03986873 248.29674451 262.57362456 248.7890625 265.12890625 C250.95163086 277.12442228 251.30024081 288.97120568 251.3125 301.125 C251.31590393 301.92686737 251.31930786 302.72873474 251.32281494 303.55490112 C251.3428692 311.80807408 251.24546455 319.74347416 249.42041016 327.83764648 C247.87151137 335.80431114 251.75373995 342.95385416 255 350 C255.52980469 351.1653125 256.05960937 352.330625 256.60546875 353.53125 C259.86840551 360.40059054 263.39908388 366.26921797 268.3984375 372.01171875 C270 374 270 374 271 377 C272.84442515 378.08664524 272.84442515 378.08664524 275 379 C276.98679692 380.23236707 278.94401145 381.50424604 280.90234375 382.78125 C291.90043244 389.17120097 311.80203942 391.42975751 323.98583984 388.52685547 C348.80834932 381.47533594 371.83247379 366.61812924 389.72045898 348.30566406 C392.47090327 345.49259705 395.26909184 342.86612946 398.3125 340.375 C402.80027053 336.52569579 405.81427752 331.94068906 409 327 C409.60328125 326.14792969 410.2065625 325.29585938 410.828125 324.41796875 C417.98219335 313.78865175 422.24375665 301.74870966 426.8503418 289.859375 C427.75507107 287.60917555 428.73719302 285.48464624 429.8203125 283.3203125 C431.45651725 278.71510045 431.23557296 274.58923895 431.0625 269.75 C430.91267021 261.69547285 431.25289989 253.92727379 432.21679688 245.93383789 C432.97174138 239.61519333 433.38553798 233.31691563 433.65795898 226.95996094 C433.79237332 224.01173801 433.97125698 221.15650214 434.50488281 218.25097656 C435.07180616 214.52851537 435.16153561 210.8839809 435.16796875 207.12890625 C435.1721582 206.37789642 435.17634766 205.6268866 435.18066406 204.8531189 C435.19042377 202.42285906 435.19045607 199.99277617 435.1875 197.5625 C435.18722809 196.73452911 435.18695618 195.90655823 435.18667603 195.05349731 C435.13689435 162.14143526 431.48612312 131.55171932 409.375 105.5 C402.56829362 97.4039687 398.85116428 88.93422424 398.875 78.375 C398.87242187 77.22773437 398.86984375 76.08046875 398.8671875 74.8984375 C399 72 399 72 400 70 C400.99 70.33 401.98 70.66 403 71 C403.80859375 73.58984375 403.80859375 73.58984375 404.4375 76.9375 C406.93851013 88.54572377 411.36220793 96.2731446 418.73486328 105.42578125 C441.88742531 134.23468128 446.37977276 168.26439895 446.31567383 204.16455078 C446.31251172 207.86130235 446.33606234 211.5572528 446.36132812 215.25390625 C446.40861634 233.09112552 444.84238304 249.7940858 440 267 C440.66 266.01 441.32 265.02 442 264 C442.66 264 443.32 264 444 264 C444.33 266.97 444.66 269.94 445 273 C445.66 273 446.32 273 447 273 C447.63041826 289.84509911 448.20699765 305.33045245 441.71337891 321.20068359 C440.75091871 323.62824405 440.05902333 326.10672417 439.375 328.625 C438.24350103 332.44051977 436.7700726 335.98711653 435.09375 339.59375 C433.85306336 342.32326061 432.74343232 345.09325808 431.625 347.875 C427.7568766 357.18452023 422.85803116 365.80401022 417 374 C416.28070313 375.010625 415.56140625 376.02125 414.8203125 377.0625 C407.94532241 386.48019858 399.87428731 396.44216784 388.91015625 401.125 C386.67776641 402.14760803 384.77354845 403.42244167 382.75 404.8125 C357.93662796 421.6229244 332.25425201 429.51904084 302.4375 425.1875 C301.21353516 425.02185547 299.98957031 424.85621094 298.72851562 424.68554688 C290.99980724 423.59554809 283.52776594 422.05484386 276 420 C274.80246094 419.68417969 273.60492188 419.36835938 272.37109375 419.04296875 C266.00161547 417.18555764 260.46213256 414.84930869 254.72265625 411.52734375 C250.29252547 409.04214843 245.65091058 407.03308664 241 405 C241.35972125 412.93867592 242.13668024 420.53885683 243.70678711 428.33203125 C244.53708171 432.47322956 245.26831318 436.61401969 245.91015625 440.7890625 C250.92353414 473.30896741 262.12415514 497.51479638 285.6875 520.625 C297.49830059 532.33015836 307.4182203 546.44355613 317 560 C298.41446078 553.21480314 283.13353313 540.43680966 269 527 C267.81277344 525.92685547 267.81277344 525.92685547 266.6015625 524.83203125 C250.91012791 510.15916347 243.10165541 489.95751781 237.875 469.5625 C237.62363281 468.61568359 237.37226563 467.66886719 237.11328125 466.69335938 C234.30113706 455.84967247 232.71410078 445.31422034 232.5859375 434.109375 C232.56657135 433.03874817 232.5472052 431.96812134 232.5272522 430.86505127 C232.46815583 427.49344491 232.42135445 424.12180309 232.375 420.75 C232.33675567 418.4439967 232.29770035 416.1380067 232.2578125 413.83203125 C232.16251323 408.22147349 232.07726804 402.61083354 232 397 C231.34 396.67 230.68 396.34 230 396 C230.00785522 397.40971069 230.00785522 397.40971069 230.01586914 398.84790039 C230.21544738 440.23638434 229.51774862 482.53403515 215.65454102 522.08374023 C214.69601176 524.88996782 213.99028731 527.75464072 213.25 530.625 C210.10633758 541.68120142 204.87437523 551.62397762 199.3125 561.625 C198.94423096 562.28806152 198.57596191 562.95112305 198.1965332 563.63427734 C196.0811147 567.35401933 193.89529565 570.81822246 191 574 C190.34 574 189.68 574 189 574 C190.70291841 552.54322798 197.07276892 532.80372179 203.828125 512.49609375 C210.16016788 493.07953502 213.92373802 472.98439414 218 453 C218.21910034 451.93313965 218.21910034 451.93313965 218.44262695 450.84472656 C221.01797272 438.29686111 223.16861789 425.97390057 224.0625 413.1875 C225.00080777 400.19852878 225.00080777 400.19852878 226 394 C225.62488281 394.70125 225.24976563 395.4025 224.86328125 396.125 C222.0976157 401.2522792 219.29076628 406.28664037 216.078125 411.1484375 C214.90836758 413.02486069 214.90836758 413.02486069 214.1640625 415.3671875 C206.16286093 433.46386487 181.79742601 444.68478053 164.78271484 451.94628906 C153.38806357 456.15054968 140.94299587 456.39067395 128.9375 456.375 C127.91310318 456.37468277 127.91310318 456.37468277 126.86801147 456.37435913 C112.04402235 456.32919211 97.58526185 454.66640584 83 452 C82.00339355 451.81808105 81.00678711 451.63616211 79.97998047 451.44873047 C53.93530327 446.47110557 34.17404254 435.00972773 19 413 C17.39939664 410.40305564 16.11095154 407.83909837 15 405 C14.70351562 404.24460937 14.40703125 403.48921875 14.1015625 402.7109375 C11.81550045 396.1044279 11.67794923 389.94198324 12 383 C11.34 383 10.68 383 10 383 C9.91234375 383.83273437 9.8246875 384.66546875 9.734375 385.5234375 C8.85697715 389.67707626 7.22611244 392.90025103 5.25 396.625 C4.51943428 398.04939909 3.79158343 399.47519376 3.06640625 400.90234375 C2.7120752 401.59956543 2.35774414 402.29678711 1.99267578 403.01513672 C-11.05078922 429.09565086 -8.04653161 457.69649224 -3.25 485.625 C-3.0502507 486.80754364 -3.0502507 486.80754364 -2.84646606 488.01397705 C-0.87506664 499.65867268 1.44911313 511.14289276 4.38232422 522.58691406 C8.57723375 538.97524838 11.30360594 555.16281359 13 572 C-2.06432527 564.70173135 -14.7691888 542.62531505 -20.31640625 527.3828125 C-21.42244244 524.03218602 -22.40148935 520.65102281 -23.35546875 517.25439453 C-24.03831639 514.8659797 -24.7659315 512.49424034 -25.5 510.12109375 C-31.90843513 489.09548572 -34.55038837 467.63577174 -37.0703125 445.875 C-38.73298325 431.49215535 -38.73298325 431.49215535 -41.1015625 417.21484375 C-42.48925798 409.04543409 -42.39122333 400.82578403 -42.375 392.5625 C-42.37578552 391.71282654 -42.37657104 390.86315308 -42.37738037 389.98773193 C-42.35737234 371.81576038 -40.65858241 354.01905241 -36.48071289 336.29052734 C-35.93800427 333.70459932 -35.59871625 331.11742875 -35.23828125 328.5 C-34.03508487 321.10508712 -31.54680759 314.24481601 -28.99682617 307.22753906 C-28.18998153 305.00683 -27.3974665 302.78142202 -26.60742188 300.5546875 C-21.80080396 287.08559953 -16.17726153 274.01891843 -10.3984375 260.94140625 C-9.97304688 259.97074219 -9.54765625 259.00007813 -9.109375 258 C-8.72749023 257.13375 -8.34560547 256.2675 -7.95214844 255.375 C-6.05514636 250.64319584 -5.80781762 246.31633834 -5.8125 241.25 C-5.81185547 240.53714844 -5.81121094 239.82429687 -5.81054688 239.08984375 C-5.86117567 234.05457986 -6.41350127 229.7594962 -8 225 C-7.34 225 -6.68 225 -6 225 C-4.68 227.97 -3.36 230.94 -2 234 C-2.27692381 220.1538097 -4.59046138 205.40843868 -8.55737305 192.13500977 C-9.2356222 188.86347705 -9.20332994 185.58187002 -9.23828125 182.25390625 C-9.24812042 181.49482468 -9.25795959 180.7357431 -9.26809692 179.95365906 C-9.50844519 156.57003644 -8.00960275 136.43831584 2 115 C2.58413575 113.72172055 3.16748882 112.44308309 3.75 111.1640625 C4.76654954 108.9501349 5.79353233 106.74093439 6.8359375 104.5390625 C10.08463123 97.45298558 9.79964646 91.69720678 7.20654297 84.46166992 C4.52500879 77.40370171 1.54533136 70.46500386 -1.55102539 63.57983398 C-7.91018594 49.41802246 -12.33777466 34.15281211 -7.3125 18.8125 C-6.56538987 16.86572915 -5.79317755 14.92846044 -5 13 C-4.08192225 10.58386904 -3.1652516 8.16720294 -2.25 5.75 C-1.50271654 3.83227256 -0.75372569 1.91520461 0 0 Z " fill="#646464" transform="translate(53,32)"/>
<path d="M0 0 C0.66 0 1.32 0 2 0 C2.10022461 0.90016846 2.20044922 1.80033691 2.30371094 2.7277832 C5.77622084 33.55319846 11.4532204 60.63541953 24.25 89.125 C24.53657471 89.76484833 24.82314941 90.40469666 25.1184082 91.06393433 C28.72685113 99.1128897 32.44479539 107.08424977 36.45947266 114.93994141 C44.64987186 131.02555061 50.27626472 148.45706686 55.9375 165.5625 C56.19601746 166.34115417 56.45453491 167.11980835 56.72088623 167.92205811 C59.94157663 177.62928498 63.12040908 187.3483138 66.125 197.125 C66.39562256 197.99842041 66.66624512 198.87184082 66.94506836 199.77172852 C68.66107635 205.45806414 69.93808853 211.15757471 71 217 C71.185625 218.00804687 71.37125 219.01609375 71.5625 220.0546875 C73.03691014 229.55936713 73.63795822 239.10276406 74.21484375 248.69873047 C74.56637152 254.21910401 75.03980771 259.59877489 76.03515625 265.04296875 C79.84116639 286.48148254 77.66813851 307.4352298 66 326 C65.34 326 64.68 326 64 326 C59.36128528 311.18089993 57.26629072 297.0385095 56.69329834 281.54199219 C56.24718591 269.66024854 55.29297328 257.8656009 54.06298828 246.04101562 C53.75026244 243.00254991 53.45883254 239.96250156 53.16796875 236.921875 C51.36693686 218.94386118 47.64128827 201.66299147 42.30859375 184.41015625 C41.14677792 180.61495323 40.15706269 176.78297248 39.16015625 172.94140625 C37.1130059 165.13562812 34.60624006 157.51207314 32 149.875 C31.14336165 147.35238796 30.29015561 144.82865272 29.4375 142.3046875 C29.02443604 141.08241455 28.61137207 139.8601416 28.18579102 138.60083008 C27.054855 135.16657532 25.99973684 131.71812585 24.96484375 128.25390625 C23.17220808 122.36060523 20.96787861 116.72882365 18.5625 111.0625 C13.26891799 98.3185714 8.68970082 85.72938976 5.54443359 72.2734375 C4.94951601 69.78918974 4.31468343 67.31703775 3.67578125 64.84375 C1.04507278 54.5272462 -0.90347774 44.69037663 -1 34 C-1.01369629 32.92105469 -1.02739258 31.84210938 -1.04150391 30.73046875 C-1.10980983 24.54837127 -1.14518855 18.36606864 -1.1328125 12.18359375 C-1.13168457 11.13743896 -1.13055664 10.09128418 -1.12939453 9.01342773 C-0.99727995 5.93665352 -0.56891897 3.02397098 0 0 Z " fill="#656565" transform="translate(503,227)"/>
<path d="M0 0 C4.07462309 1.48812322 5.28659555 3.73185004 7.25 7.5 C7.77078125 8.4796875 8.2915625 9.459375 8.828125 10.46875 C10 13 10 13 10 15 C10.66 15 11.32 15 12 15 C18.64783996 37.05064772 16.43035189 54.71774692 6 75.4375 C3.37380863 79.78453782 0.61647107 83.66935441 -4 86 C-7.34800269 86.72548228 -10.57861782 86.98623186 -14 87 C-14 86.34 -14 85.68 -14 85 C-14.99 85 -15.98 85 -17 85 C-20.75948006 79.36077992 -21.19877907 73.61604651 -20 67 C-17.96762281 62.40506028 -15.50213431 58.14101509 -12.99560547 53.79345703 C-4.25681157 38.05162771 -0.05183565 17.85738208 0 0 Z " fill="#646464" transform="translate(465,10)"/>
<path d="M0 0 C0.33 0 0.66 0 1 0 C1 6.6 1 13.2 1 20 C1.66 17.03 2.32 14.06 3 11 C3.66 11 4.32 11 5 11 C4.38582209 22.71786804 3.3053624 34.34045234 2 46 C1.34 46 0.68 46 0 46 C0.15855469 46.80566406 0.31710938 47.61132812 0.48046875 48.44140625 C0.97460949 51.82608453 1.14611881 55.06035206 1.23876953 58.47119141 C1.88520355 83.47259977 1.88520355 83.47259977 13 105 C16.67758793 110.58244635 17.43606301 116.15430615 17.875 122.6875 C17.92446777 123.41267822 17.97393555 124.13785645 18.02490234 124.88500977 C18.22076172 129.39858396 17.58014878 132.79837833 16 137 C15.80952022 140.74610227 15.81315309 143.43945927 17 147 C16.66015625 149.48046875 16.66015625 149.48046875 16.0625 152.1875 C15.77052734 153.53908203 15.77052734 153.53908203 15.47265625 154.91796875 C15.31667969 155.60503906 15.16070312 156.29210937 15 157 C14.34 156.67 13.68 156.34 13 156 C12.97421875 154.82566406 12.9484375 153.65132812 12.921875 152.44140625 C12.56282632 141.174341 10.99016638 130.86195323 8 120 C7.23703613 119.95915283 6.47407227 119.91830566 5.68798828 119.8762207 C3 119 3 119 1.37841797 116.41479492 C0.69223389 114.71480347 0.69223389 114.71480347 -0.0078125 112.98046875 C-0.25997528 112.36665848 -0.51213806 111.75284821 -0.77194214 111.12043762 C-1.30366498 109.8152238 -1.82591057 108.50611509 -2.33935547 107.19360352 C-3.11040399 105.22477018 -3.90945143 103.26945005 -4.71484375 101.31445312 C-9.22159659 90.22361331 -12.58395296 79.50492002 -12.5 67.4375 C-12.49572998 66.4671582 -12.49145996 65.49681641 -12.48706055 64.49707031 C-12.11200161 47.78242982 -8.19818101 31.1092076 -3.61254883 15.08496094 C-2.61007933 11.56381245 -1.83890514 8.18551691 -1.421875 4.54296875 C-1 1 -1 1 0 0 Z " fill="#686868" transform="translate(76,183)"/>
<path d="M0 0 C1.02158203 0.00322266 2.04316406 0.00644531 3.09570312 0.00976562 C4.15080078 0.01814453 5.20589844 0.02652344 6.29296875 0.03515625 C7.36740234 0.03966797 8.44183594 0.04417969 9.54882812 0.04882812 C12.19276558 0.06057896 14.83658827 0.07700838 17.48046875 0.09765625 C17.15046875 0.75765625 16.82046875 1.41765625 16.48046875 2.09765625 C14.3984375 2.7734375 14.3984375 2.7734375 11.66796875 3.41015625 C6.4035249 4.76192957 1.57567477 6.6154887 -3.40234375 8.78125 C-6.65490857 10.15482687 -9.94703381 11.34197299 -13.26953125 12.53515625 C-25.81966231 17.40580235 -33.81248504 26.47622957 -39.33203125 38.78515625 C-42.22080546 46.31803622 -43.84944985 54.22308252 -45.51953125 62.09765625 C-46.50953125 62.09765625 -47.49953125 62.09765625 -48.51953125 62.09765625 C-52.92221914 53.29228047 -48.22945685 39.03729588 -45.51953125 30.09765625 C-41.74317639 19.80163706 -35.3523494 11.27808149 -25.51953125 6.09765625 C-23.02232011 5.15848771 -20.55550176 4.2861755 -18.01953125 3.47265625 C-17.36855469 3.25609375 -16.71757812 3.03953125 -16.046875 2.81640625 C-10.59079892 1.03078135 -5.74286389 -0.03208304 0 0 Z " fill="#676767" transform="translate(336.51953125,55.90234375)"/>
<path d="M0 0 C7.22919644 1.72123725 11.27822181 4.32816583 16 10 C16.61512451 10.73404053 16.61512451 10.73404053 17.24267578 11.48291016 C40.45458078 39.41247801 40.45458078 39.41247801 39.87109375 51.71875 C39 54 39 54 36.9375 55.3125 C35.9784375 55.6528125 35.9784375 55.6528125 35 56 C34.41734375 55.030625 33.8346875 54.06125 33.234375 53.0625 C25.07152193 39.6481157 16.04537859 26.9741056 5.47680664 15.33520508 C2.58629112 12.06385748 1.11870773 9.20847194 0 5 C-0.226875 4.236875 -0.45375 3.47375 -0.6875 2.6875 C-0.790625 2.130625 -0.89375 1.57375 -1 1 C-0.67 0.67 -0.34 0.34 0 0 Z " fill="#666666" transform="translate(231,184)"/>
<path d="M0 0 C0.66 0 1.32 0 2 0 C7.62682664 22.47381355 5.00200929 45.30661947 2 68 C1.34 68 0.68 68 0 68 C-3.89977256 47.58842445 -7.93997143 23.06478787 -1 3 C-0.67 2.01 -0.34 1.02 0 0 Z " fill="#6A6A6A" transform="translate(243,22)"/>
<path d="M0 0 C19.11323909 5.16574029 33.48676503 21.83410893 43.42578125 38.22265625 C49.33333333 48.64516129 49.33333333 48.64516129 51 53 C50.67 53.99 50.34 54.98 50 56 C49.6596875 55.47792969 49.319375 54.95585938 48.96875 54.41796875 C47.33172819 51.93195956 45.66933506 49.46442784 44 47 C43.443125 46.16855469 42.88625 45.33710937 42.3125 44.48046875 C33.95523938 32.46690661 23.80211059 21.66282865 12 13 C10.34972616 11.75586832 8.7037534 10.50600742 7.0625 9.25 C6.35222656 8.71890625 5.64195312 8.1878125 4.91015625 7.640625 C2.90045902 5.91450468 1.43993943 4.22084701 0 2 C0 1.34 0 0.68 0 0 Z " fill="#6C6C6C" transform="translate(153,67)"/>
<path d="M0 0 C0.66 0 1.32 0 2 0 C8.1621334 15.25861603 5.16929334 29.44772572 -1 44 C-6.28446251 56.0230804 -11.99118858 67.87680099 -19 79 C-19.66 78.67 -20.32 78.34 -21 78 C-20.67314209 77.22624023 -20.34628418 76.45248047 -20.00952148 75.65527344 C-13.52086932 60.25228341 -7.25303674 44.87811104 -2 29 C-1.67 28.01 -1.34 27.02 -1 26 C-0.85013589 24.0093556 -0.75171962 22.01464609 -0.68359375 20.01953125 C-0.64169922 18.85615234 -0.59980469 17.69277344 -0.55664062 16.49414062 C-0.51732422 15.27919922 -0.47800781 14.06425781 -0.4375 12.8125 C-0.39431641 11.58595703 -0.35113281 10.35941406 -0.30664062 9.09570312 C-0.2004691 6.06391619 -0.09842048 3.03204685 0 0 Z " fill="#717171" transform="translate(75,327)"/>
<path d="M0 0 C0.66 0.33 1.32 0.66 2 1 C1.98428955 1.68924561 1.9685791 2.37849121 1.95239258 3.08862305 C1.4088056 20.09744534 1.4088056 20.09744534 4.34375 36.7421875 C5 39 5 39 5 42 C3.35 42 1.7 42 0 42 C-2.85723452 34.09158303 -3.32746628 26.52768812 -3.375 18.1875 C-3.39530273 16.70237915 -3.39530273 16.70237915 -3.41601562 15.18725586 C-3.38056191 9.34970314 -2.73047964 5.17924312 0 0 Z " fill="#6A6A6A" transform="translate(67,231)"/>
<path d="M0 0 C0.33 0 0.66 0 1 0 C1.0501123 0.95664551 1.10022461 1.91329102 1.15185547 2.89892578 C1.34315739 6.51874824 1.54276749 10.13807657 1.74462891 13.75732422 C1.83015624 15.31059038 1.91356207 16.86397512 1.99462891 18.41748047 C2.46470524 27.39535808 3.15902538 36.19554373 4.60205078 45.07763672 C4.96802489 47.76518894 5.07445503 50.29271485 5 53 C2.43397243 50.43397243 1.97857301 48.21760439 0.9375 44.75 C0.59589844 43.63109375 0.25429687 42.5121875 -0.09765625 41.359375 C-1.86640501 34.77442292 -2.19231805 28.59330658 -2.1875 21.8125 C-2.18814453 20.88155518 -2.18878906 19.95061035 -2.18945312 18.99145508 C-2.13955731 12.49762833 -1.65429967 6.30701749 0 0 Z " fill="#F0F0F0" transform="translate(70,225)"/>
<path d="M0 0 C1.32 0.66 2.64 1.32 4 2 C3.39638486 5.88626528 2.21629675 8.87316007 0.3828125 12.34375 C-0.14183594 13.34277344 -0.66648437 14.34179688 -1.20703125 15.37109375 C-1.75746094 16.40363281 -2.30789062 17.43617188 -2.875 18.5 C-3.41769531 19.53253906 -3.96039063 20.56507813 -4.51953125 21.62890625 C-6.90940554 26.15739665 -9.33495884 30.62629575 -12 35 C-12.66 34.67 -13.32 34.34 -14 34 C-13.64695801 33.14768799 -13.29391602 32.29537598 -12.93017578 31.41723633 C-11.61418074 28.23976393 -10.29845552 25.06218008 -8.98291016 21.88452148 C-8.41465811 20.51208121 -7.84630013 19.13968479 -7.27783203 17.76733398 C-6.45837661 15.78901648 -5.63930861 13.81053894 -4.8203125 11.83203125 C-4.32805176 10.64327393 -3.83579102 9.4545166 -3.32861328 8.22973633 C-2.20267203 5.492677 -1.0928979 2.75038414 0 0 Z " fill="#757575" transform="translate(68,371)"/>
<path d="M0 0 C0.66 0 1.32 0 2 0 C3.67523006 1.92229636 5.22157429 3.84039267 6.75 5.875 C7.19520996 6.46273193 7.64041992 7.05046387 8.09912109 7.65600586 C18 20.90206746 18 20.90206746 18 27 C17.34 27 16.68 27 16 27 C14.1895231 24.55300386 12.48753724 22.09994101 10.8125 19.5625 C6.753701 13.52472758 2.59593026 7.64687677 -2 2 C-1.34 1.34 -0.68 0.68 0 0 Z " fill="#7A7A7A" transform="translate(243,202)"/>
<path d="M0 0 C1.98 0.495 1.98 0.495 4 1 C4 1.66 4 2.32 4 3 C4.66 3.33 5.32 3.66 6 4 C5.34 4 4.68 4 4 4 C4 15.55 4 27.1 4 39 C3.67 39 3.34 39 3 39 C3 32.07 3 25.14 3 18 C1.68 18 0.36 18 -1 18 C-1.09706112 11.88514973 -0.77040851 6.06696699 0 0 Z " fill="#737373" transform="translate(279,424)"/>
<path d="M0 0 C0.66 0 1.32 0 2 0 C1.38582209 11.71786804 0.3053624 23.34045234 -1 35 C-1.66 35 -2.32 35 -3 35 C-3.33 36.32 -3.66 37.64 -4 39 C-4 32.73 -4 26.46 -4 20 C-3.34 19.67 -2.68 19.34 -2 19 C-2.02320312 18.38253906 -2.04640625 17.76507813 -2.0703125 17.12890625 C-2.19833108 11.12117697 -1.56840747 5.79750618 0 0 Z " fill="#A5A5A5" transform="translate(79,194)"/>
<path d="M0 0 C0.33 0 0.66 0 1 0 C1.00257813 0.68964844 1.00515625 1.37929687 1.0078125 2.08984375 C1.27942697 8.69007539 2.51773623 12.48080285 6.44140625 17.75 C11.52641986 25.09077153 14.4438419 35.123162 14 44 C13.67 44 13.34 44 13 44 C12.7525 43.05125 12.505 42.1025 12.25 41.125 C10.2935394 34.3650913 7.6306543 28.11538054 4.21777344 21.96166992 C0.18925464 14.57639088 -0.88299156 8.43747489 0 0 Z " fill="#BEBEBE" transform="translate(284,233)"/>
<path d="M0 0 C0.99 0.33 1.98 0.66 3 1 C3 12.55 3 24.1 3 36 C2.01 35.34 1.02 34.68 0 34 C-0.26697888 31.37537756 -0.34832984 28.98934067 -0.29296875 26.3671875 C-0.28872391 25.61535187 -0.28447906 24.86351624 -0.28010559 24.08889771 C-0.2632917 21.68390315 -0.22563624 19.27974191 -0.1875 16.875 C-0.17245659 15.24610584 -0.15876758 13.61719856 -0.14648438 11.98828125 C-0.11337954 7.99186566 -0.06158009 3.99607418 0 0 Z " fill="#EDEDED" transform="translate(283,428)"/>
<path d="M0 0 C-11.27931059 9.13210239 -29.91564867 11.86821344 -44 11 C-44 10.67 -44 10.34 -44 10 C-43.22140625 9.92523438 -42.4428125 9.85046875 -41.640625 9.7734375 C-29.81385406 8.38365566 -18.135237 5.29335332 -7.0859375 0.8203125 C-4.61667537 -0.15074564 -2.62967967 -0.15026741 0 0 Z " fill="#8F8F8F" transform="translate(414,448)"/>
<path d="M0 0 C0.33 0 0.66 0 1 0 C1.33 6.6 1.66 13.2 2 20 C2.66 19.01 3.32 18.02 4 17 C4 25.91 4 34.82 4 44 C3.67 44 3.34 44 3 44 C0.56583541 29.23532433 -0.42632653 14.95859546 0 0 Z " fill="#CACACA" transform="translate(35,447)"/>
<path d="M0 0 C0.33 0 0.66 0 1 0 C1 9.9 1 19.8 1 30 C0.67 30 0.34 30 0 30 C-0.33 25.38 -0.66 20.76 -1 16 C-1.99 16 -2.98 16 -4 16 C-4.66 16.99 -5.32 17.98 -6 19 C-5.03644647 9.58997722 -5.03644647 9.58997722 -4 5 C-3.01 5 -2.02 5 -1 5 C-0.67 3.35 -0.34 1.7 0 0 Z " fill="#909090" transform="translate(71,216)"/>
<path d="M0 0 C2 3 2 3 1.80859375 5.37109375 C0.91438699 8.27834569 -0.31377405 10.4939164 -1.9375 13.0625 C-3.77419557 15.99128483 -5.50825738 18.87959153 -7 22 C-7.66 21.67 -8.32 21.34 -9 21 C-6.03 14.07 -3.06 7.14 0 0 Z " fill="#777777" transform="translate(63,384)"/>
<path d="M0 0 C0.33 0 0.66 0 1 0 C0.58846263 4.97093824 0.20399168 9.44508386 -2 14 C-5 14 -5 14 -7 13 C-5.54331217 10.03216871 -3.98767914 7.13584687 -2.375 4.25 C-1.92898437 3.45078125 -1.48296875 2.6515625 -1.0234375 1.828125 C-0.68570313 1.22484375 -0.34796875 0.6215625 0 0 Z " fill="#6F6F6F" transform="translate(62,412)"/>
<path d="M0 0 C7.25398658 0.47567125 13.26812223 2.29466594 20 5 C16.36210152 6.21263283 14.79592854 5.65329292 11.125 4.6875 C10.09632812 4.42324219 9.06765625 4.15898437 8.0078125 3.88671875 C5.2519006 3.07426161 2.64475038 2.11743143 0 1 C0 0.67 0 0.34 0 0 Z " fill="#909090" transform="translate(108,475)"/>
<path d="M0 0 C0.66 0 1.32 0 2 0 C2.17786056 5.15795631 2.11596899 9.18029285 0 14 C-0.99 14.495 -0.99 14.495 -2 15 C-2.19392201 9.47322267 -1.7479503 5.24385089 0 0 Z " fill="#767676" transform="translate(70,208)"/>
<path d="M0 0 C0.66 0 1.32 0 2 0 C1.34 7.26 0.68 14.52 0 22 C-0.33 22 -0.66 22 -1 22 C-2.58624303 14.06878483 -2.19306815 7.67573853 0 0 Z " fill="#BFBFBF" transform="translate(78,167)"/>
<path d="M0 0 C4.70851829 2.90877473 5.20812716 6.10400203 6.47265625 11.2578125 C7.04384809 14.22801008 7.24470002 16.98203305 7 20 C6.67 20 6.34 20 6 20 C5.7525 19.05125 5.505 18.1025 5.25 17.125 C4.09448472 13.02208342 2.47175967 9.15260303 0.8046875 5.234375 C0 3 0 3 0 0 Z " fill="#C5C5C5" transform="translate(291,257)"/>
<path d="M0 0 C0.33 0.66 0.66 1.32 1 2 C1.99 2.33 2.98 2.66 4 3 C3.34 6.96 2.68 10.92 2 15 C1.34 14.67 0.68 14.34 0 14 C0 9.38 0 4.76 0 0 Z " fill="#838383" transform="translate(89,325)"/>
<path d="M0 0 C0.66 0 1.32 0 2 0 C3.32 3.3 4.64 6.6 6 10 C5.34 10 4.68 10 4 10 C4 14.29 4 18.58 4 23 C3.67 23 3.34 23 3 23 C2.92652344 21.515 2.92652344 21.515 2.8515625 20 C2.47596893 13.14476671 2.02153511 6.60368135 0 0 Z " fill="#999999" transform="translate(45,257)"/>
<path d="M0 0 C1 3 1 3 0.22265625 5.04296875 C-0.16019531 5.75066406 -0.54304688 6.45835937 -0.9375 7.1875 C-1.31777344 7.90292969 -1.69804688 8.61835938 -2.08984375 9.35546875 C-2.54037109 10.16951172 -2.54037109 10.16951172 -3 11 C-3.66 10.67 -4.32 10.34 -5 10 C-5 8.02 -5 6.04 -5 4 C-4.01 4 -3.02 4 -2 4 C-1.34 2.68 -0.68 1.36 0 0 Z " fill="#696969" transform="translate(69,377)"/>
<path d="M0 0 C3.99012371 0.55989303 6.5255052 1.75669768 9.8125 4.0625 C10.60269531 4.61035156 11.39289063 5.15820312 12.20703125 5.72265625 C12.79871094 6.14417969 13.39039062 6.56570313 14 7 C10.55860951 7 8.92439685 6.16303398 5.875 4.625 C4.98554687 4.18414062 4.09609375 3.74328125 3.1796875 3.2890625 C1 2 1 2 0 0 Z " fill="#8A8A8A" transform="translate(94,467)"/>
<path d="M0 0 C0.66 0 1.32 0 2 0 C1.67 3.63 1.34 7.26 1 11 C-0.32 10.67 -1.64 10.34 -3 10 C-2.01 6.7 -1.02 3.4 0 0 Z " fill="#8D8D8D" transform="translate(53,32)"/>
<path d="M0 0 C0.66 0 1.32 0 2 0 C2.28571429 8.57142857 2.28571429 8.57142857 0 12 C-1.31157516 9.37684968 -0.89649988 7.76966564 -0.5625 4.875 C-0.46066406 3.96492187 -0.35882813 3.05484375 -0.25390625 2.1171875 C-0.17011719 1.41851562 -0.08632812 0.71984375 0 0 Z " fill="#8F8F8F" transform="translate(79,194)"/>
<path d="M0 0 C0.66 0 1.32 0 2 0 C2.33 3.63 2.66 7.26 3 11 C2.34 11 1.68 11 1 11 C-0.20272819 8.59454362 -0.10071472 7.05003047 -0.0625 4.375 C-0.05347656 3.55773437 -0.04445313 2.74046875 -0.03515625 1.8984375 C-0.02355469 1.27195313 -0.01195312 0.64546875 0 0 Z " fill="#878787" transform="translate(503,227)"/>
<path d="M0 0 C1.33333333 2.66666667 2.66666667 5.33333333 4 8 C2.25 7.875 2.25 7.875 0 7 C-2.25 3.9375 -2.25 3.9375 -4 1 C-2 0 -2 0 0 0 Z " fill="#787878" transform="translate(245,202)"/>
<path d="M0 0 C1.32 0 2.64 0 4 0 C7.125 6.625 7.125 6.625 6 10 C4.99723227 8.52270825 3.99785546 7.04311423 3 5.5625 C2.443125 4.73878906 1.88625 3.91507812 1.3125 3.06640625 C0 1 0 1 0 0 Z " fill="#8B8B8B" transform="translate(197,113)"/>
<path d="M0 0 C0.66 1.32 1.32 2.64 2 4 C1.06434658 6.64564072 -0.45014515 8.62963376 -2 11 C-2.66 10.67 -3.32 10.34 -4 10 C-2.68 6.7 -1.36 3.4 0 0 Z " fill="#8A8A8A" transform="translate(58,395)"/>
<path d="M0 0 C0.99 0.33 1.98 0.66 3 1 C3 2.32 3 3.64 3 5 C1.35 5.66 -0.3 6.32 -2 7 C-2.33 6.01 -2.66 5.02 -3 4 C-2.67 3.34 -2.34 2.68 -2 2 C-1.34 2 -0.68 2 0 2 C0 1.34 0 0.68 0 0 Z " fill="#767676" transform="translate(73,276)"/>
<path d="M0 0 C2.49505962 2.49505962 2.35948376 3.67328888 2.625 7.125 C2.69976562 8.03507812 2.77453125 8.94515625 2.8515625 9.8828125 C2.92503906 10.93082031 2.92503906 10.93082031 3 12 C0.84267191 9.84267191 0.51705175 8.88177557 -0.1875 6 C-0.36667969 5.29875 -0.54585938 4.5975 -0.73046875 3.875 C-1 2 -1 2 0 0 Z " fill="#E9E9E9" transform="translate(72,266)"/>
<path d="M0 0 C2.96404505 2.80804268 5.44499019 5.18315774 7 9 C5.02 8.34 3.04 7.68 1 7 C1 5.68 1 4.36 1 3 C0.67 2.01 0.34 1.02 0 0 Z " fill="#8D8D8D" transform="translate(246,205)"/>
<path d="M0 0 C2.12508244 3.18762365 2.5020163 5.26512223 3 9 C2.01 8.67 1.02 8.34 0 8 C-0.38063221 5.6739143 -0.71269945 3.33944736 -1 1 C-0.67 0.67 -0.34 0.34 0 0 Z " fill="#8E8E8E" transform="translate(74,411)"/>
</svg>
